<svg width="20" height="20" viewBox="0 0 20 20" fill="none" xmlns="http://www.w3.org/2000/svg">
<g clip-path="url(#clip0_2001_2806)">
<path d="M15.8379 1.76611C16.7008 1.76633 17.4003 2.47012 17.4004 3.32471V16.6753C17.4001 17.5353 16.7009 18.2327 15.8379 18.2329H2.59961L2.59961 1.76611L15.8379 1.76611ZM4.06641 16.7661H5.93359L5.93359 3.23291L4.06641 3.23291L4.06641 16.7661ZM7.40039 16.7661H15.9336L15.9336 3.23291L7.40039 3.23291L7.40039 16.7661ZM19.9004 10.1001V13.2329H18.4336V10.1001H19.9004ZM14.7588 9.8999H12.4004V13.2329H10.9336V9.8999L8.5752 9.8999L11.666 6.80713L14.7588 9.8999ZM19.9004 5.1001V8.23291H18.4336V5.1001H19.9004Z" fill="#3E4247" stroke="white" stroke-width="0.2"/>
</g>
<defs>
<clipPath id="clip0_2001_2806">
<rect width="20" height="20" fill="white"/>
</clipPath>
</defs>
</svg>
